<?xml version="1.0" standalone="no"?>
<!DOCTYPE svg PUBLIC "-//W3C//DTD SVG 20010904//EN"
 "http://www.w3.org/TR/2001/REC-SVG-20010904/DTD/svg10.dtd">
<svg version="1.0" xmlns="http://www.w3.org/2000/svg"
 width="50.000000pt" height="50.000000pt" viewBox="0 0 400.000000 400.000000"
 preserveAspectRatio="xMidYMid meet">

<g transform="translate(0.000000,400.000000) scale(0.100000,-0.100000)"
fill="#000000" stroke="none">
<path d="M920 3990 c0 -5 5 -10 11 -10 5 0 7 5 4 10 -3 6 -8 10 -11 10 -2 0
-4 -4 -4 -10z"/>
<path d="M1945 3989 c-12 -19 2 -20 51 -5 l49 15 -47 0 c-26 1 -50 -4 -53 -10z"/>
<path d="M2176 3985 c3 -8 15 -15 26 -15 15 0 19 -5 15 -20 -3 -11 0 -20 6
-20 6 0 8 -3 5 -6 -12 -11 27 -40 50 -36 18 4 26 -4 43 -43 11 -26 18 -49 15
-52 -3 -4 -6 -2 -6 4 0 6 -11 13 -25 15 -35 7 -31 -7 8 -25 30 -15 32 -15 35
3 4 24 35 34 61 21 14 -8 20 -7 25 4 7 19 -9 28 -37 21 -28 -7 -52 7 -44 26 3
10 -2 14 -16 14 -14 -1 -23 7 -28 26 -8 31 8 49 22 27 6 -10 9 -11 9 -1 0 7
13 12 30 12 19 0 30 -5 30 -14 0 -10 10 -14 29 -14 l30 1 -32 22 c-20 14 -31
29 -30 41 2 19 -5 21 -112 23 -99 1 -114 0 -109 -14z m97 -2 c4 -3 0 -15 -10
-25 -15 -17 -15 -18 0 -18 10 0 17 -4 17 -9 0 -10 -31 -24 -38 -17 -7 8 -11
59 -6 68 6 10 28 10 37 1z"/>
<path d="M2610 3990 c-8 -5 -30 -10 -47 -10 -18 0 -33 -5 -33 -11 0 -14 63 -5
111 16 31 13 32 14 9 14 -14 1 -32 -4 -40 -9z"/>
<path d="M1245 3980 c-3 -5 1 -10 9 -10 9 0 16 5 16 10 0 6 -4 10 -9 10 -6 0
-13 -4 -16 -10z"/>
<path d="M737 3973 c-4 -7 -5 -24 -1 -38 5 -20 2 -25 -12 -25 -9 0 -14 -3 -11
-7 4 -3 2 -12 -4 -20 -6 -7 -8 -13 -3 -13 5 0 2 -5 -6 -10 -20 -13 -60 -13
-60 0 0 6 5 10 12 10 9 0 9 3 1 11 -7 7 -20 9 -30 5 -14 -6 -15 -9 -4 -15 7
-5 10 -14 7 -20 -4 -6 -4 -11 1 -12 4 0 38 -1 75 -3 61 -2 66 -1 57 16 -5 10
-15 18 -21 18 -6 0 -4 8 6 19 16 18 43 20 80 5 14 -5 17 -3 14 7 -3 8 -13 16
-24 17 -30 6 -41 21 -24 33 11 8 9 9 -12 5 -20 -5 -27 -2 -30 11 -2 13 -6 14
-11 6z"/>
<path d="M850 3939 c0 -14 20 -20 36 -11 14 8 12 10 -10 14 -14 3 -26 2 -26
-3z"/>
<path d="M1150 3940 c0 -5 5 -10 10 -10 6 0 10 5 10 10 0 6 -4 10 -10 10 -5 0
-10 -4 -10 -10z"/>
<path d="M985 3920 c3 -5 11 -10 16 -10 6 0 7 5 4 10 -3 6 -11 10 -16 10 -6 0
-7 -4 -4 -10z"/>
<path d="M880 3883 c0 -7 -5 -13 -11 -13 -6 0 -9 -6 -6 -14 7 -17 -13 -26 -55
-26 -23 0 -29 -4 -24 -16 3 -9 6 -18 6 -20 0 -2 7 -4 15 -4 8 0 15 4 15 9 0
10 56 22 118 24 23 1 42 5 42 10 0 4 1 10 2 15 1 4 -11 9 -27 12 -26 4 -27 7
-13 20 13 14 11 15 -24 15 -24 0 -38 -4 -38 -12z"/>
<path d="M1024 3893 c12 -12 54 -14 61 -3 4 6 -8 10 -31 10 -21 0 -34 -3 -30
-7z"/>
<path d="M570 3840 c-12 -8 -9 -10 13 -10 16 0 26 4 22 10 -8 12 -16 12 -35 0z"/>
<path d="M2250 3840 c0 -5 7 -10 15 -10 8 0 15 5 15 10 0 6 -7 10 -15 10 -8 0
-15 -4 -15 -10z"/>
<path d="M2618 3833 c7 -3 16 -2 19 1 4 3 -2 6 -13 5 -11 0 -14 -3 -6 -6z"/>
<path d="M579 3815 c-1 -6 -1 -14 0 -19 1 -5 -6 -5 -16 -2 -14 6 -15 4 -6 -5
8 -8 22 -9 50 -1 21 5 29 10 18 11 -12 1 -26 6 -33 13 -7 7 -13 8 -13 3z"/>
<path d="M924 3800 c-6 -6 -20 -12 -32 -13 -11 0 -19 -4 -17 -7 2 -3 47 -4
101 -3 72 2 101 6 113 18 14 13 13 15 -12 15 -15 0 -27 -5 -27 -11 0 -11 -19
-10 -90 7 -14 3 -30 0 -36 -6z"/>
<path d="M750 3775 c0 -9 9 -15 21 -15 18 0 19 2 9 15 -7 8 -16 15 -21 15 -5
0 -9 -7 -9 -15z"/>
<path d="M2440 3771 c0 -9 13 -13 36 -10 4 0 10 -5 14 -11 5 -8 9 -8 13 2 3 8
0 15 -6 16 -7 0 -22 4 -34 7 -15 5 -23 3 -23 -4z"/>
<path d="M631 3741 c23 -18 23 -20 6 -39 -18 -19 -17 -20 24 -20 23 -1 47 -6
52 -11 6 -6 7 -11 1 -12 -5 0 -31 -2 -58 -4 -27 -3 -51 -7 -54 -10 -3 -3 4
-25 16 -49 12 -24 22 -47 22 -52 0 -4 14 -22 31 -40 l31 -32 59 60 c61 61 68
75 47 96 -9 9 -7 12 10 12 13 0 22 6 22 15 0 21 92 20 124 -1 17 -10 26 -12
31 -4 4 6 16 8 28 5 22 -6 22 -6 2 10 -11 9 -20 21 -20 28 -1 7 -7 10 -15 8
-8 -2 -41 -7 -74 -11 -45 -5 -66 -2 -90 11 -27 15 -34 15 -59 2 -16 -8 -43
-13 -60 -11 l-32 4 28 12 c29 12 32 32 6 41 -12 4 -12 2 0 -12 12 -15 11 -17
-8 -17 -29 0 -63 19 -56 31 4 5 -4 9 -16 9 -21 0 -21 0 2 -19z m359 -71 c0 -5
-7 -10 -16 -10 -8 0 -12 5 -9 10 3 6 10 10 16 10 5 0 9 -4 9 -10z"/>
<path d="M2452 3719 c3 -8 15 -16 29 -17 13 -2 20 0 16 5 -5 4 -12 8 -15 8 -4
0 -13 4 -21 9 -9 6 -12 5 -9 -5z"/>
<path d="M945 3550 c3 -5 8 -10 11 -10 2 0 4 5 4 10 0 6 -5 10 -11 10 -5 0 -7
-4 -4 -10z"/>
<path d="M885 3499 c-4 -6 -5 -12 -2 -15 2 -3 7 2 10 11 7 17 1 20 -8 4z"/>
<path d="M750 3390 c-8 -5 -11 -12 -7 -16 4 -4 15 0 24 9 18 18 8 23 -17 7z"/>
<path d="M3003 3317 c-3 -5 -19 -5 -36 -2 l-32 6 29 -16 c16 -8 37 -24 46 -35
22 -26 27 -25 26 3 -1 15 4 21 16 19 11 -2 15 3 12 15 -5 18 -51 26 -61 10z"/>
<path d="M3094 3242 c4 -3 14 -7 22 -8 9 -1 13 0 10 4 -4 3 -14 7 -22 8 -9 1
-13 0 -10 -4z"/>
<path d="M3170 2886 c0 -4 5 -16 10 -27 10 -17 13 -18 25 -5 19 19 19 36 -1
36 -9 0 -12 -5 -8 -12 5 -9 2 -9 -9 1 -9 7 -17 10 -17 7z"/>
<path d="M2710 2841 c0 -5 5 -13 10 -16 6 -3 10 -13 10 -21 0 -12 -4 -13 -22
-4 -19 9 -21 9 -8 -2 27 -23 52 -69 45 -86 -3 -10 7 -28 29 -51 19 -20 44 -61
57 -91 30 -74 38 -80 32 -26 -4 31 -2 46 6 46 13 0 -4 40 -22 51 -13 9 -19 69
-7 69 21 0 7 18 -60 79 -38 34 -70 58 -70 52z m108 -160 c3 -8 -1 -12 -9 -9
-7 2 -15 10 -17 17 -3 8 1 12 9 9 7 -2 15 -10 17 -17z"/>
<path d="M3265 2810 c-3 -5 -1 -10 4 -10 6 0 11 5 11 10 0 6 -2 10 -4 10 -3 0
-8 -4 -11 -10z"/>
<path d="M3307 2799 c7 -7 15 -10 18 -7 3 3 -2 9 -12 12 -14 6 -15 5 -6 -5z"/>
<path d="M672 2475 c0 -16 2 -22 5 -12 2 9 2 23 0 30 -3 6 -5 -1 -5 -18z"/>
<path d="M3502 2300 c0 -14 2 -19 5 -12 2 6 2 18 0 25 -3 6 -5 1 -5 -13z"/>
<path d="M3501 2254 c0 -11 3 -14 6 -6 3 7 2 16 -1 19 -3 4 -6 -2 -5 -13z"/>
<path d="M915 2220 c-3 -5 1 -10 9 -10 9 0 16 5 16 10 0 6 -4 10 -9 10 -6 0
-13 -4 -16 -10z"/>
<path d="M688 2197 c12 -13 22 -27 22 -31 0 -14 -71 2 -91 20 -18 16 -19 16
-19 -4 0 -23 62 -101 94 -119 31 -16 49 -56 44 -97 -3 -28 -1 -33 9 -24 7 6
13 21 13 34 0 13 5 24 11 24 5 0 7 -5 3 -11 -5 -9 3 -10 28 -5 26 5 39 2 48
-9 7 -8 21 -15 32 -15 15 0 17 3 8 19 -15 29 -13 31 33 31 23 0 59 5 80 11 32
9 37 14 37 40 0 34 19 46 50 29 15 -8 20 -19 18 -38 -2 -19 2 -27 12 -27 22 0
25 68 5 99 -10 14 -32 35 -50 46 -35 22 -85 27 -85 9 0 -7 -7 -8 -17 -4 -30
12 -86 24 -77 16 5 -4 28 -13 52 -20 31 -9 42 -16 38 -27 -4 -10 2 -14 21 -14
58 0 9 -13 -59 -15 -40 -1 -97 -7 -125 -12 -50 -9 -54 -9 -68 14 -22 33 -11
63 23 64 15 1 38 5 52 10 18 6 10 7 -27 4 -31 -3 -53 0 -53 6 0 5 -11 7 -25 5
-13 -3 -27 0 -30 5 -4 5 -11 9 -17 9 -6 0 -2 -10 10 -23z"/>
<path d="M3481 2140 c-17 -114 -37 -176 -80 -245 -46 -72 -93 -166 -87 -172 3
-4 27 33 76 122 12 22 33 58 46 80 26 46 74 214 74 263 0 61 -18 32 -29 -48z"/>
<path d="M1581 2164 c-18 -21 -20 -28 -10 -35 8 -5 14 -18 14 -31 0 -15 8 -24
25 -28 28 -7 80 15 80 33 0 7 10 0 21 -15 26 -35 72 -37 129 -8 41 21 53 51
28 67 -7 4 -62 8 -123 9 -105 2 -137 10 -98 25 13 6 10 8 -13 8 -21 1 -37 -7
-53 -25z"/>
<path d="M1961 2144 c-18 -8 -40 -13 -47 -10 -19 7 -18 -9 2 -25 13 -10 17
-10 24 2 7 11 12 11 22 1 17 -17 41 -15 34 3 -3 8 2 21 10 30 20 19 2 19 -45
-1z"/>
<path d="M2885 2070 c3 -5 8 -10 11 -10 2 0 4 5 4 10 0 6 -5 10 -11 10 -5 0
-7 -4 -4 -10z"/>
<path d="M2834 2038 c17 -62 18 -68 7 -68 -6 0 -8 -7 -5 -15 4 -8 11 -15 18
-15 7 0 10 -14 8 -40 -4 -35 -7 -40 -23 -35 -17 6 -18 3 -10 -18 6 -14 6 -28
1 -33 -5 -5 -12 -44 -16 -86 l-7 -76 29 -4 28 -3 0 -112 c1 -62 3 -113 6 -113
3 0 7 -12 8 -26 3 -40 -20 -24 -37 27 -25 69 -41 93 -54 80 -6 -6 -20 -11 -32
-11 -17 -1 -16 -3 7 -16 23 -12 26 -19 22 -43 -4 -19 0 -38 10 -52 20 -29 21
-59 1 -59 -9 0 -12 -6 -9 -15 7 -17 -11 -21 -21 -5 -4 7 -13 6 -26 -1 -12 -6
-23 -8 -26 -6 -2 3 -17 2 -32 -3 -15 -4 -35 -4 -44 2 -14 7 -15 5 -8 -14 7
-18 16 -23 44 -23 27 0 33 -3 25 -12 -7 -9 -6 -18 3 -30 13 -15 12 -16 -8 -11
-16 4 -23 2 -23 -8 0 -8 5 -14 11 -14 5 0 7 -4 4 -10 -8 -13 -65 -13 -65 1 0
5 5 7 10 4 6 -3 10 -1 10 4 0 6 -7 11 -16 11 -8 0 -13 4 -9 9 3 5 1 12 -5 16
-5 3 -10 -1 -10 -10 0 -9 -6 -15 -12 -14 -28 3 -37 -2 -32 -16 5 -12 10 -13
20 -4 11 9 14 7 14 -10 0 -16 -6 -21 -25 -21 -14 0 -25 -4 -25 -10 0 -5 -14
-10 -31 -10 -20 0 -29 4 -26 13 2 6 14 12 25 11 17 0 19 2 10 13 -6 8 -17 12
-25 9 -7 -3 -13 -1 -13 5 0 6 -5 7 -11 4 -6 -4 -8 -13 -5 -20 2 -7 -2 -22 -9
-33 -8 -10 -11 -22 -8 -26 3 -3 3 -6 0 -6 -4 0 -20 18 -36 41 l-30 40 2 -45
c1 -25 5 -46 10 -46 5 0 7 -9 4 -20 -3 -11 -2 -18 1 -16 4 2 8 -20 9 -50 2
-32 -1 -54 -8 -54 -15 0 -41 68 -34 91 4 11 2 19 -5 19 -7 0 -10 8 -8 18 4 15
1 18 -19 14 -25 -5 -25 -18 2 -74 8 -16 9 -30 4 -34 -12 -7 -29 4 -29 21 0 7
-7 16 -16 19 -12 5 -15 2 -10 -10 8 -20 -39 -123 -59 -130 -7 -3 -18 -19 -24
-36 -6 -16 -15 -27 -21 -23 -6 4 -7 12 -2 22 6 10 2 22 -15 39 -12 13 -23 31
-23 41 -1 10 -23 34 -50 53 -30 21 -48 40 -45 48 3 8 2 19 -2 25 -4 7 -6 26
-4 43 2 27 -2 33 -33 48 -31 14 -35 20 -26 36 18 33 -1 80 -58 141 -30 32 -59
59 -65 59 -5 0 0 -9 13 -20 18 -16 21 -23 12 -32 -9 -9 -12 -9 -12 0 0 7 -8
12 -17 11 -11 0 -13 -3 -5 -6 6 -2 12 -11 12 -19 0 -12 -5 -11 -27 3 -27 18
-63 19 -74 1 -4 -5 -22 -1 -44 12 -36 20 -38 20 -51 3 -13 -17 -15 -17 -28 1
-9 10 -20 15 -27 10 -7 -4 -18 1 -26 12 -14 19 -14 19 -28 0 -12 -16 -17 -17
-30 -6 -8 7 -15 9 -15 4 0 -5 -7 -17 -14 -27 -13 -17 -16 -17 -38 -3 -21 13
-27 13 -62 -5 -46 -22 -59 -24 -54 -7 3 7 36 29 74 50 47 25 62 38 47 38 -13
0 -23 -4 -23 -8 0 -4 -20 -14 -45 -21 -26 -8 -42 -17 -38 -24 3 -6 1 -7 -5 -3
-10 6 -42 -8 -116 -51 -11 -7 -35 -13 -52 -13 -16 0 -35 -5 -41 -11 -9 -9 -18
-8 -35 3 -13 8 -34 18 -48 21 -27 7 -80 81 -80 112 0 18 -1 18 -15 -1 -8 -10
-15 -36 -15 -56 0 -21 -3 -38 -7 -38 -24 -1 -35 -18 -24 -39 7 -11 8 -21 3
-21 -6 0 -12 -9 -15 -20 -4 -15 0 -20 16 -20 18 0 19 -2 7 -10 -12 -7 -10 -11
10 -19 23 -9 21 -10 -16 -10 -47 -1 -58 13 -47 57 6 25 5 26 -11 13 -14 -12
-18 -12 -31 5 -8 10 -17 31 -20 47 -4 15 -11 27 -16 27 -5 0 -9 7 -9 15 0 9
-16 39 -35 68 -19 28 -35 46 -35 38 0 -8 -6 -11 -16 -7 -9 4 -32 3 -51 0 l-35
-7 7 -51 c4 -28 9 -67 12 -86 2 -19 8 -51 13 -70 6 -19 10 -50 10 -67 0 -26 4
-33 20 -33 11 0 20 -4 20 -10 0 -5 -7 -10 -15 -10 -8 0 -15 -9 -15 -20 0 -31
42 -110 59 -110 12 0 13 -2 3 -8 -9 -7 -2 -32 33 -106 25 -54 45 -102 45 -107
0 -5 7 -21 16 -35 13 -19 20 -22 30 -13 8 6 14 7 14 2 0 -5 6 -10 13 -10 54
-2 153 -17 155 -24 2 -5 10 -9 18 -9 8 0 14 -4 14 -10 0 -5 -16 -10 -35 -10
-19 0 -35 -4 -35 -10 0 -5 18 -10 40 -10 22 0 50 -6 61 -13 17 -9 23 -9 26 1
3 6 9 12 14 12 6 0 8 -4 4 -9 -8 -14 37 -10 55 4 25 21 87 26 101 9 10 -13 10
-17 -1 -24 -9 -5 -5 -8 13 -7 19 2 23 5 15 15 -19 22 8 39 30 19 23 -21 30
-21 34 0 2 12 15 17 46 19 23 1 49 7 57 14 9 7 26 9 45 5 28 -6 30 -5 30 24 0
20 -6 32 -18 36 -19 5 -48 52 -43 69 6 25 -13 45 -49 51 -22 4 -40 12 -40 17
0 6 -9 3 -20 -7 -15 -14 -23 -15 -34 -6 -8 7 -17 8 -20 3 -6 -11 26 -22 62
-22 12 0 22 -4 22 -9 0 -15 -21 -25 -29 -14 -11 17 -41 11 -41 -9 0 -10 -4
-18 -9 -18 -5 0 -16 -3 -24 -6 -18 -7 -32 27 -15 37 9 6 9 13 0 34 -11 23 -17
26 -60 23 -33 -2 -46 1 -44 10 2 11 -24 17 -58 13 -56 -6 -117 -5 -113 3 6 9
-23 5 -75 -10 -13 -4 -22 -2 -22 5 0 6 8 12 18 13 32 2 37 3 47 10 6 3 48 5
95 3 55 -2 77 0 63 6 -15 5 -21 14 -17 24 5 12 -3 15 -47 15 -54 1 -89 16 -89
39 0 7 6 11 13 8 6 -2 11 -9 10 -15 -1 -5 5 -13 13 -16 11 -4 18 1 21 14 6 24
16 25 33 5 10 -12 16 -13 28 -3 10 8 13 8 9 2 -4 -7 2 -14 14 -17 15 -4 19 -2
15 9 -8 22 22 29 42 11 16 -15 19 -15 30 3 8 14 9 20 1 20 -20 0 -3 23 18 25
15 1 19 -3 15 -13 -4 -12 0 -14 19 -8 21 6 112 8 159 3 26 -2 134 14 159 24
14 6 63 15 109 20 46 5 93 14 104 20 13 7 29 7 49 0 31 -11 38 -1 14 19 -17
14 -15 34 3 36 25 3 27 5 13 13 -12 8 -13 15 -4 34 7 14 9 34 6 46 -3 14 -1
21 9 21 9 0 14 -13 14 -41 1 -23 7 -44 13 -48 9 -6 9 -26 0 -82 -10 -72 -10
-75 19 -134 17 -33 26 -61 21 -63 -5 -2 -9 -11 -9 -19 0 -11 -7 -14 -25 -11
-14 3 -25 2 -25 -1 0 -3 -4 -12 -9 -20 -8 -13 -12 -13 -26 -1 -16 13 -17 11
-11 -33 5 -38 4 -47 -9 -47 -8 0 -15 4 -15 9 0 5 -8 12 -17 16 -10 3 -2 -9 17
-28 19 -20 38 -33 42 -31 4 3 5 -3 1 -13 -6 -15 -4 -16 9 -5 13 10 17 10 22
-3 3 -9 2 -14 -3 -11 -4 3 -6 -5 -4 -19 8 -37 30 -39 25 -1 -5 28 -3 30 12 17
9 -8 14 -21 11 -31 -3 -10 0 -17 9 -17 9 0 12 5 9 11 -4 6 0 5 9 -2 14 -11 18
-10 27 5 9 16 10 15 11 -6 0 -24 0 -24 15 -5 14 18 17 16 19 -16 1 -8 9 -14
17 -12 9 1 22 -4 29 -12 9 -12 16 -13 31 -3 14 9 21 9 30 0 9 -9 15 -8 26 2 8
9 28 13 51 11 20 -2 44 0 53 5 11 6 21 4 29 -6 16 -19 28 -19 26 -1 -1 15 0
16 35 16 14 0 19 -5 16 -14 -7 -17 30 -29 37 -12 3 7 5 6 5 -3 1 -11 4 -11 16
-1 8 7 13 15 10 19 -2 4 10 5 27 3 19 -3 33 0 38 9 5 8 24 12 48 11 21 -2 49
2 63 7 l24 10 -25 2 c-32 2 -52 2 -65 -1 -22 -5 -45 1 -45 11 0 7 12 9 31 7
28 -4 30 -3 26 19 -3 15 0 23 10 23 10 0 12 -6 8 -20 -5 -17 -2 -20 27 -22 18
0 39 -1 46 -1 6 1 12 -3 12 -8 0 -5 -6 -9 -12 -10 -7 0 -3 -4 10 -10 39 -15
15 -27 -51 -26 -34 1 -63 -3 -64 -8 -2 -6 25 -9 65 -8 112 2 104 0 90 25 -7
13 -17 26 -22 29 -4 4 6 9 23 11 22 3 35 0 41 -11 6 -10 10 -11 10 -3 0 7 13
12 30 12 19 0 30 5 30 14 0 8 -8 13 -17 12 -11 0 -19 7 -21 21 -2 16 5 26 27
37 16 9 36 14 43 11 8 -3 22 1 33 10 17 13 18 16 5 25 -8 5 -20 8 -27 5 -7 -2
-10 2 -6 11 6 17 20 18 26 2 3 -10 7 -10 20 1 26 21 20 36 -14 37 -16 1 -35 6
-41 12 -8 8 -4 10 17 6 51 -9 75 3 75 37 0 19 9 38 26 54 14 13 24 30 21 37
-2 7 5 31 16 53 11 22 21 51 22 66 1 14 4 30 8 35 8 14 10 105 2 142 -4 17
-14 32 -21 32 -8 0 -14 5 -14 10 0 6 10 10 22 10 21 0 21 0 2 14 -18 14 -18
15 -1 21 20 8 23 50 4 62 -19 12 -40 87 -32 113 4 14 3 25 -5 30 -7 4 -14 27
-16 51 -5 52 -35 129 -51 129 -6 0 -20 16 -32 35 -11 19 -16 35 -12 35 5 0 7
10 3 22 -4 18 -2 20 16 16 27 -7 28 -1 3 20 -19 18 -57 129 -47 139 5 5 -38
33 -51 33 -3 0 -3 -10 1 -22z m46 -78 c0 -5 -4 -10 -10 -10 -5 0 -10 5 -10 10
0 6 5 10 10 10 6 0 10 -4 10 -10z m-9 -166 c12 -14 11 -16 -5 -13 -11 2 -21
10 -24 17 -5 17 13 15 29 -4z m3 -71 c4 -9 1 -20 -6 -25 -21 -13 -28 -9 -28
17 0 28 24 34 34 8z m93 -19 c-9 -9 -28 6 -21 18 4 6 10 6 17 -1 6 -6 8 -13 4
-17z m8 -54 c-5 -8 -11 -8 -17 -2 -6 6 -7 16 -3 22 5 8 11 8 17 2 6 -6 7 -16
3 -22z m-65 -156 c0 -13 -4 -24 -9 -24 -13 0 -24 37 -16 50 10 16 25 1 25 -26z
m-1930 -144 c0 -5 -4 -10 -10 -10 -5 0 -10 5 -10 10 0 6 5 10 10 10 6 0 10 -4
10 -10z m1957 -36 c-3 -3 -12 -4 -19 -1 -8 3 -5 6 6 6 11 1 17 -2 13 -5z
m-1018 -17 c6 -8 8 -17 4 -20 -7 -8 -33 11 -33 24 0 13 16 11 29 -4z m-470
-10 c6 -8 8 -17 4 -20 -7 -8 -33 11 -33 24 0 13 16 11 29 -4z m1548 -13 c-3
-3 -12 -4 -19 -1 -8 3 -5 6 6 6 11 1 17 -2 13 -5z m-2042 -24 c3 -5 1 -10 -4
-10 -6 0 -11 5 -11 10 0 6 2 10 4 10 3 0 8 -4 11 -10z m355 6 c0 -2 -7 -6 -15
-10 -8 -3 -15 -1 -15 4 0 6 7 10 15 10 8 0 15 -2 15 -4z m75 -6 c3 -5 -1 -10
-9 -10 -9 0 -16 5 -16 10 0 6 4 10 9 10 6 0 13 -4 16 -10z m365 -6 c0 -2 -16
-4 -35 -4 -19 0 -35 4 -35 8 0 4 16 6 35 4 19 -2 35 -6 35 -8z m37 -6 c2 -18
0 -20 -7 -8 -12 18 -13 30 -2 30 4 0 9 -10 9 -22z m-1110 -10 c-3 -8 -6 -5 -6
6 -1 11 2 17 5 13 3 -3 4 -12 1 -19z m663 12 c0 -5 -4 -10 -10 -10 -5 0 -10 5
-10 10 0 6 5 10 10 10 6 0 10 -4 10 -10z m1420 -15 c7 -9 8 -15 2 -15 -5 0
-12 7 -16 15 -3 8 -4 15 -2 15 2 0 9 -7 16 -15z m87 9 c-3 -3 -12 -4 -19 -1
-8 3 -5 6 6 6 11 1 17 -2 13 -5z m-1827 -24 c0 -5 -4 -10 -10 -10 -5 0 -10 5
-10 10 0 6 5 10 10 10 6 0 10 -4 10 -10z m320 0 c13 -8 13 -10 -2 -10 -9 0
-20 5 -23 10 -8 13 5 13 25 0z m1565 0 c-27 -12 -65 -12 -65 -1 0 5 19 9 43 9
31 0 37 -2 22 -8z m-1918 -40 c1 -16 -3 -32 -9 -36 -6 -4 -9 -1 -6 7 3 8 2 26
-3 41 -5 19 -4 25 4 22 7 -2 13 -18 14 -34z m403 30 c0 -5 -7 -10 -16 -10 -8
0 -12 5 -9 10 3 6 10 10 16 10 5 0 9 -4 9 -10z m-672 -12 c-4 -12 -48 -20 -48
-8 0 12 13 20 33 20 10 0 17 -5 15 -12z m461 -14 c24 -5 29 -10 21 -19 -7 -9
-42 -13 -100 -14 -75 -1 -90 1 -90 14 0 11 7 14 23 10 12 -2 38 -1 57 4 46 12
52 12 89 5z m-379 -20 c0 -2 -9 -4 -21 -4 -11 0 -18 4 -14 10 5 8 35 3 35 -6z
m550 6 c11 -7 -1 -10 -40 -10 -39 0 -51 3 -40 10 8 5 26 10 40 10 14 0 32 -5
40 -10z m97 4 c-3 -3 -12 -4 -19 -1 -8 3 -5 6 6 6 11 1 17 -2 13 -5z m1363 2
c0 -3 -4 -8 -10 -11 -5 -3 -10 -1 -10 4 0 6 5 11 10 11 6 0 10 -2 10 -4z
m-1232 -13 c-15 -2 -42 -2 -60 0 -18 2 -6 4 27 4 33 0 48 -2 33 -4z m160 -19
c7 -2 23 1 36 6 18 6 26 5 30 -5 8 -23 -118 -25 -147 -2 -22 17 -21 17 23 11
25 -3 51 -7 58 -10z m963 -3 c-8 -5 -20 -7 -28 -4 -21 8 -15 13 15 13 20 0 23
-3 13 -9z m-1765 -31 c22 -8 10 -9 -51 -7 -44 2 -72 2 -62 -1 24 -5 22 -22 -3
-22 -13 0 -20 7 -20 19 0 14 -8 21 -27 24 -16 3 8 3 53 0 44 -2 94 -8 110 -13z
m1638 5 c3 -9 0 -15 -9 -15 -9 0 -12 6 -9 15 4 8 7 15 9 15 2 0 5 -7 9 -15z
m-1471 -2 c-7 -2 -19 -2 -25 0 -7 3 -2 5 12 5 14 0 19 -2 13 -5z m157 -13 c0
-9 -23 -30 -33 -30 -4 0 -5 5 -2 10 4 7 -3 8 -21 4 -19 -5 -25 -4 -20 5 4 6
11 9 16 6 5 -3 11 -2 14 3 5 9 46 11 46 2z m170 -10 c-20 -13 -50 -13 -50 0 0
6 15 10 33 10 24 0 28 -3 17 -10z m1000 0 c0 -5 -4 -10 -10 -10 -5 0 -10 5
-10 10 0 6 5 10 10 10 6 0 10 -4 10 -10z m74 -5 c12 -9 17 -22 13 -34 -3 -11
1 -26 9 -32 12 -10 12 -15 -2 -30 -10 -11 -28 -19 -41 -19 -14 0 -23 -6 -23
-16 0 -8 -4 -12 -10 -9 -23 14 -8 33 31 39 38 6 40 8 27 24 -20 23 -30 52 -18
52 6 0 10 5 10 10 0 6 -5 9 -11 8 -6 -2 -14 3 -16 10 -6 16 7 15 31 -3z
m-1789 -5 c-3 -5 -10 -10 -16 -10 -5 0 -9 5 -9 10 0 6 7 10 16 10 8 0 12 -4 9
-10z m1975 6 c0 -11 -19 -15 -25 -6 -3 5 1 10 9 10 9 0 16 -2 16 -4z m30 -15
c0 -6 -4 -13 -10 -16 -5 -3 -10 1 -10 9 0 9 5 16 10 16 6 0 10 -4 10 -9z
m-280 -11 c0 -5 -5 -10 -11 -10 -5 0 -7 5 -4 10 3 6 8 10 11 10 2 0 4 -4 4
-10z m240 -10 c0 -5 -5 -10 -11 -10 -5 0 -7 5 -4 10 3 6 8 10 11 10 2 0 4 -4
4 -10z m140 0 c0 -5 -2 -10 -4 -10 -3 0 -8 5 -11 10 -3 6 -1 10 4 10 6 0 11
-4 11 -10z m-245 -10 c3 -6 -4 -10 -17 -10 -18 0 -20 2 -8 10 19 12 18 12 25
0z m-1435 -10 c0 -5 -5 -10 -11 -10 -5 0 -7 5 -4 10 3 6 8 10 11 10 2 0 4 -4
4 -10z m1607 4 c-3 -3 -12 -4 -19 -1 -8 3 -5 6 6 6 11 1 17 -2 13 -5z m198 -4
c-27 -12 -43 -12 -25 0 8 5 22 9 30 9 10 0 8 -3 -5 -9z m-946 -29 c-3 -6 -10
-7 -18 -2 -7 5 -10 14 -6 21 9 14 29 -2 24 -19z m-1035 -2 c-3 -5 -10 -7 -15
-3 -5 3 -7 10 -3 15 3 5 10 7 15 3 5 -3 7 -10 3 -15z m-64 1 c0 -5 -4 -10 -10
-10 -5 0 -10 5 -10 10 0 6 5 10 10 10 6 0 10 -4 10 -10z m1134 -24 c10 4 12
-2 9 -20 -4 -19 -1 -26 11 -26 10 0 16 -8 16 -21 0 -26 -30 -22 -45 6 -5 11
-19 20 -30 20 -13 0 -21 8 -23 23 -4 24 7 29 26 10 9 -9 12 -7 13 13 1 15 3
18 6 7 2 -9 10 -15 17 -12z m651 14 c4 -6 -6 -10 -22 -10 -22 0 -25 2 -13 10
19 12 27 12 35 0z m126 0 c10 0 19 -5 19 -11 0 -13 -50 -3 -65 13 -7 8 -4 9 8
4 10 -3 27 -6 38 -6z m-77 -20 c-21 -8 -37 -3 -29 10 3 4 15 6 27 2 21 -5 21
-6 2 -12z m226 16 c0 -2 -9 -6 -20 -9 -11 -3 -18 -1 -14 4 5 9 34 13 34 5z
m-321 -32 c2 -2 -10 -4 -27 -4 -24 0 -30 4 -26 15 5 12 10 12 27 3 12 -6 24
-12 26 -14z m-1849 7 c0 -3 19 -7 42 -9 44 -3 56 -8 45 -18 -10 -10 -110 9
-114 22 -2 6 3 11 12 11 8 0 15 -3 15 -6z m190 -22 c0 -5 -4 -9 -10 -9 -5 0
-10 7 -10 16 0 8 5 12 10 9 6 -3 10 -10 10 -16z m1918 5 c18 -3 30 -9 27 -15
-4 -5 -10 -7 -14 -5 -4 3 -40 6 -79 8 -40 1 -72 5 -72 8 0 20 28 21 138 4z
m-1988 -18 c0 -17 -7 -26 -26 -30 -37 -10 -41 0 -7 18 15 8 24 15 20 16 -5 0
-5 5 -2 10 10 16 15 12 15 -14z m40 14 c0 -5 -7 -10 -15 -10 -8 0 -15 5 -15
10 0 6 7 10 15 10 8 0 15 -4 15 -10z m1339 -31 c-16 -10 -23 -4 -14 10 3 6 11
8 17 5 6 -4 5 -9 -3 -15z m386 11 c-3 -5 -11 -10 -16 -10 -6 0 -7 5 -4 10 3 6
11 10 16 10 6 0 7 -4 4 -10z m225 -4 c0 -3 -4 -8 -10 -11 -5 -3 -10 -1 -10 4
0 6 5 11 10 11 6 0 10 -2 10 -4z m-330 -10 c0 -3 -4 -8 -10 -11 -5 -3 -10 -1
-10 4 0 6 5 11 10 11 6 0 10 -2 10 -4z m50 0 c0 -11 -19 -15 -25 -6 -3 5 1 10
9 10 9 0 16 -2 16 -4z m247 -2 c-3 -3 -12 -4 -19 -1 -8 3 -5 6 6 6 11 1 17 -2
13 -5z m-177 -25 c0 -5 -7 -9 -15 -9 -8 0 -15 -7 -15 -15 0 -8 8 -15 17 -15
12 0 14 -3 6 -11 -6 -6 -21 -8 -33 -4 -16 5 -19 10 -10 20 7 8 9 19 5 25 -3 5
1 10 9 10 9 0 16 5 16 11 0 5 5 7 10 4 6 -3 10 -10 10 -16z m-600 -8 c0 -6 -4
-13 -10 -16 -5 -3 -10 1 -10 9 0 9 5 16 10 16 6 0 10 -4 10 -9z m337 3 c-3 -3
-12 -4 -19 -1 -8 3 -5 6 6 6 11 1 17 -2 13 -5z m203 -14 c0 -5 -4 -10 -10 -10
-5 0 -10 5 -10 10 0 6 5 10 10 10 6 0 10 -4 10 -10z m-1760 -10 c0 -5 -4 -10
-10 -10 -5 0 -10 5 -10 10 0 6 5 10 10 10 6 0 10 -4 10 -10z m275 0 c-8 -13
-35 -13 -55 0 -11 7 -5 10 23 10 23 0 36 -4 32 -10z m1442 -12 c-3 -8 -6 -5
-6 6 -1 11 2 17 5 13 3 -3 4 -12 1 -19z m243 12 l35 -2 -29 -8 c-23 -7 -116
-7 -136 1 -11 4 56 16 75 13 11 -1 36 -3 55 -4z m-445 -10 c3 -5 1 -10 -4 -10
-6 0 -11 5 -11 10 0 6 2 10 4 10 3 0 8 -4 11 -10z m85 0 c0 -5 -7 -10 -16 -10
-8 0 -12 5 -9 10 3 6 10 10 16 10 5 0 9 -4 9 -10z m100 -6 c0 -8 -34 -34 -43
-34 -7 0 -6 4 3 10 11 7 11 10 2 10 -7 0 -11 4 -7 9 4 8 45 12 45 5z m-179
-31 c8 -9 9 -14 2 -10 -6 4 -13 2 -15 -5 -3 -7 -7 -2 -10 10 -7 26 4 29 23 5z
m412 -5 c3 -11 1 -15 -6 -11 -5 3 -26 6 -45 5 -19 -1 -52 3 -74 7 -29 7 -49 5
-74 -5 -31 -13 -34 -13 -34 2 0 9 6 14 13 11 6 -2 20 -1 29 2 10 3 55 6 102 6
73 1 85 -2 89 -17z m54 16 c-3 -3 -12 -4 -19 -1 -8 3 -5 6 6 6 11 1 17 -2 13
-5z m-1608 -20 c4 -3 -17 -5 -44 -4 -3 0 -18 -6 -35 -15 -18 -9 -31 -11 -35
-5 -3 6 -15 10 -26 10 -12 0 -17 4 -13 11 3 6 18 9 33 6 14 -3 35 -1 46 3 18
7 63 3 74 -6z m778 -9 c3 -9 3 -19 -1 -22 -8 -9 -37 18 -30 28 8 14 24 11 31
-6z m828 5 c3 -5 2 -10 -4 -10 -5 0 -13 5 -16 10 -3 6 -2 10 4 10 5 0 13 -4
16 -10z m-1899 -11 c4 -8 9 -8 17 0 15 15 38 13 62 -5 19 -15 16 -16 -38 -12
-32 3 -63 10 -69 16 -9 9 -8 12 4 12 9 0 20 -5 24 -11z m1508 -3 c-6 -16 -43
-28 -57 -19 -6 3 5 12 24 18 19 7 35 13 36 14 1 0 0 -5 -3 -13z m58 2 c-9 -9
-15 -9 -24 0 -9 9 -7 12 12 12 19 0 21 -3 12 -12z m264 -15 c-3 -3 -27 -7 -53
-10 -54 -4 -51 7 4 17 37 6 59 3 49 -7z m-410 -9 c-4 -12 -1 -14 14 -9 11 4
20 2 20 -3 0 -10 -46 -22 -54 -14 -6 5 12 42 20 42 4 0 3 -7 0 -16z m192 1
c-11 -9 -78 -14 -78 -6 0 5 15 11 33 13 29 3 53 0 45 -7z m-1406 -7 c6 6 21 7
42 1 17 -5 59 -8 93 -7 34 1 65 -1 69 -5 9 -9 -218 -9 -240 -1 -9 3 -16 10
-16 15 0 6 9 5 21 -2 14 -7 25 -7 31 -1z m982 -23 c3 -8 1 -15 -4 -15 -6 0
-10 7 -10 15 0 8 2 15 4 15 2 0 6 -7 10 -15z m151 5 c-3 -5 -11 -10 -16 -10
-6 0 -7 5 -4 10 3 6 11 10 16 10 6 0 7 -4 4 -10z m155 6 c0 -2 -7 -7 -16 -10
-8 -3 -12 -2 -9 4 6 10 25 14 25 6z m338 -9 c7 -8 7 -18 2 -27 -6 -8 -10 -10
-10 -4 0 7 -9 14 -20 17 -11 3 -20 10 -20 16 0 15 35 14 48 -2z m-1288 -12 c0
-8 -4 -15 -10 -15 -5 0 -7 -6 -4 -14 7 -18 -15 -31 -29 -17 -8 8 -8 14 0 22 6
6 9 18 6 25 -3 9 2 14 16 14 12 0 21 -6 21 -15z m478 4 c-2 -6 -8 -10 -13 -10
-5 0 -11 4 -13 10 -2 6 4 11 13 11 9 0 15 -5 13 -11z m72 -4 c0 -8 -4 -15 -10
-15 -5 0 -10 7 -10 15 0 8 5 15 10 15 6 0 10 -7 10 -15z m518 -5 c-13 -20 -65
-41 -80 -33 -18 10 -6 20 23 20 19 0 35 6 41 16 5 10 13 17 19 17 5 0 4 -9 -3
-20z m161 -5 c14 -14 12 -15 -19 -10 -33 6 -71 12 -78 14 -2 1 0 6 4 12 9 15
73 4 93 -16z m-1549 -5 c0 -5 -4 -10 -10 -10 -5 0 -10 5 -10 10 0 6 5 10 10
10 6 0 10 -4 10 -10z m1154 -5 c3 -8 1 -15 -4 -15 -6 0 -10 7 -10 15 0 8 2 15
4 15 2 0 6 -7 10 -15z m90 -6 c-3 -5 -10 -7 -15 -3 -5 3 -7 10 -3 15 3 5 10 7
15 3 5 -3 7 -10 3 -15z m41 11 c3 -5 1 -10 -4 -10 -6 0 -11 5 -11 10 0 6 2 10
4 10 3 0 8 -4 11 -10z m-80 -10 c-3 -5 -11 -10 -16 -10 -6 0 -7 5 -4 10 3 6
11 10 16 10 6 0 7 -4 4 -10z m-88 -6 c-3 -3 -12 -4 -19 -1 -8 3 -5 6 6 6 11 1
17 -2 13 -5z m-1097 -18 c0 -3 -4 -8 -10 -11 -5 -3 -10 -1 -10 4 0 6 5 11 10
11 6 0 10 -2 10 -4z m180 -36 c0 -5 -2 -10 -4 -10 -3 0 -8 5 -11 10 -3 6 -1
10 4 10 6 0 11 -4 11 -10z"/>
<path d="M710 1903 c-12 -3 -24 -51 -49 -191 -19 -103 -36 -205 -38 -227 l-5
-41 39 4 39 4 1 96 c1 63 7 113 18 142 18 51 32 205 19 212 -5 2 -16 3 -24 1z"/>
<path d="M938 1873 c12 -2 30 -2 40 0 9 3 -1 5 -23 4 -22 0 -30 -2 -17 -4z"/>
<path d="M3249 1670 c-30 -25 -42 -29 -96 -30 -39 0 -63 -4 -63 -11 0 -8 22
-10 68 -7 59 3 71 8 101 36 45 40 36 51 -10 12z"/>
<path d="M2714 1468 c-5 -7 -7 -23 -6 -35 2 -14 -3 -23 -15 -25 -14 -3 -11 -8
15 -21 30 -17 38 -15 32 8 -1 6 -4 26 -7 45 -5 41 -8 46 -19 28z"/>
<path d="M2604 1363 c4 -12 2 -24 -4 -28 -6 -3 -8 -11 -5 -16 8 -11 155 -12
155 0 0 4 -23 8 -51 7 -45 -2 -53 1 -76 28 -21 25 -25 27 -19 9z"/>
<path d="M2300 1222 c0 -11 22 -32 32 -32 5 0 4 9 -2 20 -11 20 -30 28 -30 12z"/>
<path d="M1525 829 c4 -12 14 -36 22 -53 14 -30 14 -30 8 -3 -3 15 -1 27 5 27
18 0 10 17 -16 35 -25 16 -26 16 -19 -6z"/>
<path d="M2843 726 c-13 -6 -23 -14 -23 -19 0 -11 42 2 60 19 13 12 13 14 0
13 -8 -1 -25 -6 -37 -13z"/>
<path d="M1680 710 c0 -15 7 -20 25 -20 14 0 30 -9 37 -20 13 -21 78 -29 78
-10 0 6 -16 10 -35 10 -36 0 -48 15 -17 23 12 4 11 5 -6 6 -12 0 -25 8 -28 16
-9 23 -54 19 -54 -5z"/>
<path d="M1800 696 c0 -9 5 -16 10 -16 6 0 10 4 10 9 0 6 -4 13 -10 16 -5 3
-10 -1 -10 -9z"/>
<path d="M1644 669 c15 -48 18 -79 8 -79 -6 0 -15 6 -19 13 -14 24 -39 26 -52
5 -11 -18 -10 -24 7 -40 19 -19 82 -32 82 -16 0 4 6 5 14 2 7 -3 16 1 19 9 8
22 -3 57 -18 57 -14 0 -28 30 -23 50 2 7 -3 15 -11 18 -11 3 -12 -1 -7 -19z
m-29 -89 c3 -5 1 -10 -4 -10 -6 0 -11 5 -11 10 0 6 2 10 4 10 3 0 8 -4 11 -10z"/>
<path d="M850 651 c0 -6 4 -12 8 -15 5 -3 9 1 9 9 0 8 -4 15 -9 15 -4 0 -8 -4
-8 -9z"/>
<path d="M1897 640 c-4 -17 -11 -21 -35 -17 -41 7 -59 -7 -27 -21 26 -12 55
-7 55 10 0 5 9 6 20 3 23 -7 25 2 6 28 -13 16 -14 16 -19 -3z"/>
<path d="M936 641 c-3 -5 0 -11 7 -13 17 -7 38 2 31 13 -7 12 -31 12 -38 0z"/>
<path d="M2740 634 c0 -9 40 -23 44 -15 3 5 -5 11 -19 13 -14 3 -25 4 -25 2z"/>
<path d="M2808 633 c7 -3 16 -2 19 1 4 3 -2 6 -13 5 -11 0 -14 -3 -6 -6z"/>
<path d="M960 610 c0 -5 7 -10 15 -10 8 0 15 5 15 10 0 6 -7 10 -15 10 -8 0
-15 -4 -15 -10z"/>
<path d="M1775 610 c-4 -6 -12 -8 -18 -4 -7 3 -3 -2 7 -10 11 -9 27 -16 35
-16 13 0 13 2 2 9 -7 5 -10 14 -7 20 4 6 3 11 -3 11 -5 0 -13 -5 -16 -10z"/>
<path d="M2536 605 c-10 -8 -16 -19 -14 -25 2 -7 9 -6 22 3 10 8 17 19 15 25
-3 7 -10 6 -23 -3z"/>
<path d="M910 601 c0 -9 41 -23 48 -16 2 2 1 8 -3 14 -8 13 -45 15 -45 2z"/>
<path d="M2775 600 c-13 -6 -15 -9 -5 -9 8 0 22 4 30 9 18 12 2 12 -25 0z"/>
<path d="M1900 592 c0 -9 27 -27 38 -26 6 1 23 2 37 3 45 2 26 19 -25 23 -28
1 -50 2 -50 0z"/>
<path d="M2016 581 c-4 -5 -2 -12 3 -15 5 -4 12 -2 15 3 4 5 2 12 -3 15 -5 4
-12 2 -15 -3z"/>
<path d="M2315 582 c6 -6 29 -12 52 -14 55 -5 42 7 -17 16 -29 5 -41 4 -35 -2z"/>
<path d="M1720 570 c0 -5 5 -10 11 -10 5 0 7 5 4 10 -3 6 -8 10 -11 10 -2 0
-4 -4 -4 -10z"/>
<path d="M2485 570 c4 -6 11 -8 16 -5 14 9 11 15 -7 15 -8 0 -12 -5 -9 -10z"/>
<path d="M1018 563 c7 -3 16 -2 19 1 4 3 -2 6 -13 5 -11 0 -14 -3 -6 -6z"/>
<path d="M2120 545 c0 -19 -5 -25 -22 -25 -49 -1 -101 1 -108 3 -4 1 -7 -2 -6
-8 0 -5 4 -9 9 -7 4 1 7 -2 7 -8 0 -5 -9 -10 -21 -10 -12 0 -17 -4 -13 -11 4
-8 -1 -9 -16 -4 -29 9 -100 12 -100 4 0 -3 -11 -4 -24 -2 -18 4 -25 0 -29 -18
-5 -17 -9 -20 -19 -12 -19 15 -82 28 -74 15 8 -13 -3 -42 -16 -42 -15 0 -35
24 -31 37 2 6 -1 14 -6 18 -6 3 -11 -1 -11 -9 0 -9 -7 -16 -15 -16 -8 0 -15
-4 -15 -10 0 -5 -9 -10 -20 -10 -25 0 -26 -26 -3 -52 15 -17 15 -18 -9 -18
-34 0 -55 25 -32 38 11 6 13 11 5 16 -6 4 -11 1 -11 -6 0 -7 -9 5 -19 27 -11
22 -20 32 -20 23 -1 -9 4 -20 9 -23 17 -10 11 -25 -10 -25 -11 0 -26 12 -34
28 -8 15 -15 22 -16 17 0 -7 -15 -9 -35 -7 -29 3 -35 1 -35 -14 0 -14 -2 -16
-9 -6 -7 11 -9 11 -14 -1 -3 -10 -14 -13 -31 -10 -24 5 -28 10 -25 30 0 3 -6
10 -15 15 -8 5 -13 15 -9 24 5 13 -1 15 -33 13 -21 -1 -49 3 -61 10 -19 10
-23 9 -23 -3 0 -9 -9 -13 -25 -11 -14 1 -25 -3 -25 -9 0 -6 -5 -3 -11 7 -8 14
-14 16 -25 6 -11 -9 -14 -8 -14 4 0 8 6 17 13 20 27 10 -1 15 -41 7 -32 -6
-47 -4 -58 7 -12 13 -14 13 -14 0 0 -22 -27 -41 -33 -25 -4 9 -6 9 -6 1 -1
-18 69 -176 83 -188 7 -5 11 -15 9 -21 -2 -6 6 -32 18 -58 18 -43 23 -47 46
-41 16 4 22 2 18 -5 -3 -5 -13 -10 -21 -10 -8 0 -12 -5 -9 -10 4 -6 10 -8 15
-5 5 3 28 8 52 11 24 3 52 14 62 23 18 15 19 15 13 -1 -10 -27 21 -30 39 -3 9
14 21 22 26 19 6 -4 9 -1 6 7 -3 8 -28 18 -61 23 -39 6 -57 13 -57 23 0 10 6
12 20 8 11 -3 20 -2 20 2 0 9 20 9 83 0 38 -6 42 -12 23 -39 -23 -32 -20 -41
10 -34 22 6 25 4 20 -9 -3 -9 -6 -19 -6 -22 0 -3 -6 -1 -13 5 -17 15 -49 -10
-41 -32 3 -9 11 -16 16 -16 6 0 8 7 5 15 -4 8 -2 17 4 21 6 3 13 -4 16 -15 3
-12 20 -28 37 -37 109 -51 131 -84 58 -84 -27 0 -33 -3 -22 -10 19 -12 122
-11 115 1 -9 14 41 22 91 14 33 -5 44 -10 40 -20 -8 -23 9 -26 27 -4 21 24 69
27 60 2 -4 -10 -2 -14 4 -10 6 4 58 9 114 12 57 3 131 10 164 16 33 5 70 10
83 9 12 0 25 7 28 15 7 17 54 21 54 5 0 -5 11 -10 25 -10 14 0 25 5 25 10 0 6
16 18 35 27 19 9 35 20 35 25 0 4 12 14 28 22 15 8 22 15 16 16 -6 0 -11 7
-11 15 0 16 24 28 38 20 5 -4 6 1 3 9 -3 9 -12 16 -19 16 -8 0 -17 5 -21 12
-5 8 0 9 14 6 12 -4 20 -2 16 3 -9 15 14 10 31 -7 22 -22 31 -9 15 21 -7 14
-11 28 -7 31 3 3 10 -4 17 -15 13 -26 21 -26 49 -2 20 17 20 19 4 26 -13 5 -5
10 32 20 27 7 53 11 57 9 22 -14 -8 27 -30 42 -27 17 -27 17 -9 -3 9 -11 17
-23 17 -26 0 -12 -21 -8 -36 7 -14 14 -48 11 -70 -6 -13 -10 -44 0 -44 14 0 6
7 8 15 4 10 -4 15 1 15 14 0 13 -5 17 -14 14 -10 -4 -14 1 -13 15 1 12 6 21
13 21 6 0 18 8 25 17 13 15 12 16 -8 11 -13 -4 -26 -2 -29 3 -3 5 7 9 23 9 20
0 24 3 14 9 -8 5 -20 7 -28 4 -7 -3 -13 0 -13 6 0 6 9 11 20 11 11 0 20 3 20
8 0 4 -11 7 -25 7 -14 0 -25 -6 -25 -12 0 -7 -5 -13 -11 -13 -6 0 -9 9 -6 20
3 13 -1 21 -15 26 -11 3 -22 3 -25 0 -4 -3 1 -6 10 -6 12 0 17 -9 17 -31 0
-27 -3 -30 -27 -27 -16 2 -27 8 -26 15 1 6 -11 15 -28 18 -20 5 -29 12 -25 21
3 7 1 16 -5 19 -5 4 -7 10 -4 15 7 11 -43 26 -52 16 -4 -3 1 -6 10 -6 21 0 22
-14 2 -30 -11 -10 -18 -9 -30 3 -8 9 -15 20 -15 26 0 6 -4 11 -10 11 -5 0 -10
-11 -10 -25z m95 -35 c-5 -16 -2 -20 17 -20 17 0 24 -6 24 -20 0 -24 -11 -26
-20 -5 -3 8 -13 15 -23 15 -17 -1 -17 -2 1 -15 30 -23 11 -29 -23 -9 -24 14
-33 16 -43 6 -17 -17 -41 -15 -34 3 3 8 1 15 -4 15 -6 0 -10 -4 -10 -10 0 -5
-7 -7 -16 -3 -13 5 -13 7 -2 14 12 8 78 29 105 33 7 1 16 5 19 9 13 12 16 8 9
-13z m-1175 0 c0 -5 -5 -10 -11 -10 -5 0 -7 5 -4 10 3 6 8 10 11 10 2 0 4 -4
4 -10z m-60 -10 c0 -5 -4 -10 -9 -10 -6 0 -13 5 -16 10 -3 6 1 10 9 10 9 0 16
-4 16 -10z m1088 0 c15 -1 15 -2 1 -10 -12 -7 -30 -7 -57 -1 -2 1 0 6 3 12 4
6 14 8 22 5 8 -3 22 -6 31 -6z m-1058 -14 c0 -2 -7 -7 -16 -10 -8 -3 -12 -2
-9 4 6 10 25 14 25 6z m85 -26 c3 -5 1 -10 -4 -10 -6 0 -11 5 -11 10 0 6 2 10
4 10 3 0 8 -4 11 -10z m1090 -20 c3 -5 1 -10 -4 -10 -6 0 -11 5 -11 10 0 6 2
10 4 10 3 0 8 -4 11 -10z m188 -20 c-3 -11 -9 -20 -14 -20 -5 0 -9 9 -9 20 0
11 6 20 14 20 9 0 12 -7 9 -20z m-284 -14 c10 -12 8 -13 -8 -9 -12 3 -21 9
-21 14 0 14 16 11 29 -5z m-279 0 c0 -3 -4 -8 -10 -11 -5 -3 -10 -1 -10 4 0 6
5 11 10 11 6 0 10 -2 10 -4z m-769 -26 c16 0 29 -4 29 -10 0 -5 -13 -10 -30
-10 -16 0 -30 5 -30 11 0 5 -4 7 -10 4 -11 -7 -14 8 -3 19 4 4 9 2 11 -3 2 -6
17 -11 33 -11z m859 10 c0 -5 -4 -10 -9 -10 -6 0 -13 5 -16 10 -3 6 1 10 9 10
9 0 16 -4 16 -10z m250 1 c0 -5 -6 -14 -14 -20 -16 -13 -32 2 -21 19 8 12 35
13 35 1z m-1015 -21 c3 -5 -1 -10 -10 -10 -9 0 -13 5 -10 10 3 6 8 10 10 10 2
0 7 -4 10 -10z m335 -6 c0 -9 -5 -14 -12 -12 -18 6 -21 28 -4 28 9 0 16 -7 16
-16z m580 -14 c-24 -15 -37 -11 -16 5 11 8 22 12 25 9 3 -3 -1 -9 -9 -14z
m320 -10 c0 -14 -15 -19 -29 -10 -17 10 -5 31 14 23 8 -3 15 -9 15 -13z m-420
0 c0 -5 -4 -10 -10 -10 -5 0 -10 5 -10 10 0 6 5 10 10 10 6 0 10 -4 10 -10z
m0 -52 c0 -12 -10 -9 -26 6 -20 21 -17 28 6 14 11 -7 20 -16 20 -20z m120 22
c0 -5 -7 -10 -15 -10 -8 0 -15 -4 -15 -10 0 -5 -7 -10 -15 -10 -22 0 -18 14 8
26 29 15 37 16 37 4z m-394 -10 c14 0 22 -4 19 -10 -3 -5 -1 -10 4 -10 6 0 11
7 11 16 0 14 3 14 15 4 12 -10 18 -10 30 0 10 9 15 9 15 1 0 -6 13 -11 29 -11
16 0 41 -4 55 -10 17 -6 27 -6 32 1 3 6 10 6 17 1 7 -5 30 -9 52 -9 42 0 113
-19 129 -34 6 -5 18 -9 28 -9 10 0 18 -3 18 -7 0 -15 -15 -29 -30 -27 -8 0
-23 2 -33 2 -12 1 -15 6 -11 15 6 9 4 9 -8 -1 -13 -10 -18 -10 -29 0 -8 8 -21
13 -29 13 -8 -1 -19 1 -25 4 -14 8 -44 12 -103 15 -30 1 -57 8 -61 15 -5 8
-27 12 -57 11 -27 -2 -56 0 -64 3 -8 3 -24 7 -34 9 -11 2 -21 9 -24 17 -3 10
0 12 12 8 10 -4 29 -7 42 -7z m564 -32 c0 -6 -7 -7 -16 -4 -9 3 -22 6 -30 6
-8 0 -14 4 -14 8 0 5 14 7 30 4 17 -2 30 -9 30 -14z m-1142 -8 c1 -10 -6 -15
-23 -16 -24 -2 -33 14 -18 30 11 11 38 2 41 -14z m1023 -13 c-13 -13 -26 -3
-16 12 3 6 11 8 17 5 6 -4 6 -10 -1 -17z m-974 7 c-3 -3 -12 -4 -19 -1 -8 3
-5 6 6 6 11 1 17 -2 13 -5z m1023 -4 c0 -5 -4 -10 -10 -10 -5 0 -10 5 -10 10
0 6 5 10 10 10 6 0 10 -4 10 -10z m53 -24 c7 -18 -1 -26 -25 -26 -21 0 -23 6
-5 25 16 18 24 18 30 1z m-56 -27 c-3 -11 -2 -19 2 -19 4 0 7 -10 6 -22 -1
-13 -6 -21 -11 -18 -5 3 -8 13 -7 22 2 9 -4 18 -11 20 -10 2 -11 9 -5 26 10
27 33 19 26 -9z m133 2 c0 -5 -7 -14 -15 -21 -16 -14 -18 -10 -9 14 6 17 24
22 24 7z m-380 -11 c0 -5 -2 -10 -4 -10 -3 0 -8 5 -11 10 -3 6 -1 10 4 10 6 0
11 -4 11 -10z m310 -45 c0 -8 -7 -15 -15 -15 -8 0 -15 7 -15 15 0 8 7 15 15
15 8 0 15 -7 15 -15z m-44 -30 c-6 -17 9 -21 19 -5 4 6 11 8 16 5 16 -11 10
-23 -17 -29 -30 -8 -63 22 -41 36 19 12 30 9 23 -7z m-96 1 c0 -3 -4 -8 -10
-11 -5 -3 -10 -1 -10 4 0 6 5 11 10 11 6 0 10 -2 10 -4z"/>
<path d="M1815 270 c3 -5 10 -10 16 -10 5 0 9 5 9 10 0 6 -7 10 -16 10 -8 0
-12 -4 -9 -10z"/>
<path d="M1185 540 c-3 -5 -1 -10 4 -10 6 0 11 5 11 10 0 6 -2 10 -4 10 -3 0
-8 -4 -11 -10z"/>
<path d="M2720 540 c0 -5 7 -7 15 -4 8 4 15 8 15 10 0 2 -7 4 -15 4 -8 0 -15
-4 -15 -10z"/>
<path d="M2280 510 c0 -5 5 -10 10 -10 6 0 10 5 10 10 0 6 -4 10 -10 10 -5 0
-10 -4 -10 -10z"/>
<path d="M1303 493 c8 -13 67 -23 67 -11 0 4 -6 8 -12 8 -7 0 -24 3 -37 7 -16
4 -22 2 -18 -4z"/>
<path d="M2440 441 c0 -10 42 -23 49 -15 7 6 -20 24 -36 24 -7 0 -13 -4 -13
-9z"/>
<path d="M2500 429 c0 -5 5 -7 10 -4 6 3 10 8 10 11 0 2 -4 4 -10 4 -5 0 -10
-5 -10 -11z"/>
<path d="M2590 412 c0 -4 10 -9 22 -9 18 -2 20 0 8 7 -18 12 -30 13 -30 2z"/>
<path d="M2445 380 c-3 -5 1 -10 10 -10 9 0 13 5 10 10 -3 6 -8 10 -10 10 -2
0 -7 -4 -10 -10z"/>
<path d="M2542 368 c2 -6 10 -14 16 -16 7 -2 10 2 6 12 -7 18 -28 22 -22 4z"/>
<path d="M1330 96 c0 -2 9 -6 20 -9 11 -3 18 -1 14 4 -5 9 -34 13 -34 5z"/>
</g>
</svg>
